<svg width="285" height="600" viewBox="0 0 285 600" fill="none" xmlns="http://www.w3.org/2000/svg">
<path d="M171.633 32.1989C170.824 32.1989 170.099 32.0355 169.46 31.7088C168.826 31.3774 168.319 30.9228 167.94 30.3452C167.566 29.7675 167.367 29.107 167.344 28.3636H168.629C168.672 29.1354 168.975 29.7699 169.538 30.267C170.102 30.7595 170.8 31.0057 171.633 31.0057C172.282 31.0057 172.86 30.8518 173.366 30.544C173.873 30.2315 174.268 29.8054 174.552 29.2656C174.841 28.7211 174.986 28.108 174.986 27.4261C174.981 26.7159 174.827 26.0909 174.524 25.5511C174.221 25.0066 173.809 24.5805 173.288 24.2727C172.772 23.965 172.192 23.8111 171.548 23.8111C171.06 23.8063 170.582 23.8868 170.113 24.0526C169.645 24.2183 169.254 24.4313 168.942 24.6918L167.613 24.5213L168.487 17.4545H175.675V18.6477H169.602L169.02 23.5128H169.091C169.413 23.2429 169.803 23.0227 170.263 22.8523C170.727 22.6818 171.217 22.5966 171.733 22.5966C172.59 22.5966 173.359 22.8026 174.041 23.2145C174.728 23.6264 175.27 24.1946 175.667 24.919C176.07 25.6387 176.271 26.4673 176.271 27.4048C176.271 28.3234 176.07 29.1449 175.667 29.8693C175.27 30.589 174.72 31.1572 174.02 31.5739C173.324 31.9905 172.528 32.1989 171.633 32.1989ZM183.81 32.1989C182.787 32.1989 181.914 31.9053 181.189 31.3182C180.47 30.7263 179.916 29.8717 179.528 28.7543C179.144 27.6368 178.952 26.2945 178.952 24.7273C178.952 23.1648 179.144 21.8272 179.528 20.7145C179.916 19.5971 180.472 18.7424 181.197 18.1506C181.926 17.554 182.797 17.2557 183.81 17.2557C184.823 17.2557 185.692 17.554 186.417 18.1506C187.146 18.7424 187.702 19.5971 188.086 20.7145C188.474 21.8272 188.668 23.1648 188.668 24.7273C188.668 26.2945 188.474 27.6368 188.086 28.7543C187.702 29.8717 187.148 30.7263 186.424 31.3182C185.704 31.9053 184.833 32.1989 183.81 32.1989ZM183.81 31.0057C184.932 31.0057 185.808 30.4588 186.438 29.3651C187.068 28.2666 187.383 26.7206 187.383 24.7273C187.383 23.4015 187.238 22.2699 186.949 21.3324C186.665 20.3902 186.256 19.6705 185.721 19.1733C185.19 18.6761 184.554 18.4276 183.81 18.4276C182.698 18.4276 181.824 18.9815 181.189 20.0895C180.555 21.1927 180.238 22.7386 180.238 24.7273C180.238 26.053 180.38 27.1847 180.664 28.1222C180.953 29.0597 181.362 29.7746 181.893 30.267C182.428 30.7595 183.067 31.0057 183.81 31.0057ZM195.87 32.2273C194.894 32.2273 194.045 31.9834 193.32 31.4957C192.6 31.008 192.042 30.3404 191.644 29.4929C191.246 28.6454 191.047 27.6795 191.047 26.5952C191.047 25.5014 191.249 24.5284 191.651 23.6761C192.058 22.8239 192.622 22.1562 193.341 21.6733C194.061 21.1856 194.897 20.9418 195.849 20.9418C196.578 20.9418 197.238 21.0838 197.83 21.3679C198.422 21.6473 198.91 22.0426 199.293 22.554C199.681 23.0606 199.925 23.6525 200.025 24.3295H198.746C198.614 23.714 198.294 23.1884 197.787 22.7528C197.286 22.3125 196.646 22.0923 195.87 22.0923C195.174 22.0923 194.558 22.2817 194.023 22.6605C193.488 23.0346 193.069 23.5578 192.766 24.2301C192.468 24.8977 192.319 25.6719 192.319 26.5526C192.319 27.438 192.465 28.2216 192.759 28.9034C193.053 29.5805 193.465 30.1108 193.995 30.4943C194.53 30.8778 195.155 31.0696 195.87 31.0696C196.353 31.0696 196.793 30.9796 197.191 30.7997C197.593 30.6151 197.93 30.3546 198.199 30.0185C198.474 29.6823 198.659 29.2822 198.753 28.8182H200.032C199.937 29.4763 199.703 30.0634 199.329 30.5795C198.959 31.0909 198.479 31.4934 197.887 31.7869C197.3 32.0805 196.627 32.2273 195.87 32.2273ZM202.741 32V21.0909H203.97V22.767H204.084C204.301 22.2036 204.664 21.7609 205.17 21.4389C205.682 21.1122 206.295 20.9489 207.01 20.9489C207.763 20.9489 208.381 21.1264 208.863 21.4815C209.351 21.8319 209.716 22.3149 209.957 22.9304H210.05C210.296 22.3243 210.696 21.8437 211.25 21.4886C211.809 21.1288 212.486 20.9489 213.281 20.9489C214.294 20.9489 215.095 21.2685 215.682 21.9077C216.269 22.5421 216.562 23.4702 216.562 24.6918V32H215.298V24.6918C215.298 23.83 215.078 23.1837 214.638 22.7528C214.197 22.322 213.617 22.1065 212.898 22.1065C212.064 22.1065 211.423 22.3622 210.973 22.8736C210.523 23.3849 210.298 24.0336 210.298 24.8196V32H209.006V24.5781C209.006 23.8395 208.8 23.2429 208.388 22.7884C207.976 22.3338 207.396 22.1065 206.648 22.1065C206.146 22.1065 205.693 22.2296 205.291 22.4759C204.893 22.7221 204.578 23.0653 204.346 23.5057C204.119 23.9413 204.006 24.4432 204.006 25.0114V32H202.741Z" fill="#606060"/>
<path d="M43.1989 338.252C43.1989 339.18 43.0237 340.006 42.6733 340.731C42.3229 341.455 41.8447 342.023 41.2386 342.435C40.6278 342.847 39.9389 343.053 39.1719 343.053C38.5705 343.053 38.0095 342.928 37.4886 342.677C36.9631 342.426 36.5227 342.08 36.1676 341.64C35.8078 341.2 35.5734 340.705 35.4645 340.156L35.3864 340.156C35.178 340.871 34.7685 341.446 34.1577 341.881C33.5421 342.317 32.8437 342.532 32.0625 342.528C31.3381 342.532 30.6894 342.348 30.1165 341.974C29.5436 341.6 29.0914 341.091 28.7599 340.447C28.4238 339.798 28.2557 339.067 28.2557 338.252C28.2557 337.442 28.4238 336.716 28.7599 336.072C29.0914 335.428 29.5436 334.919 30.1165 334.545C30.6894 334.166 31.3381 333.974 32.0625 333.969C32.839 333.974 33.5374 334.194 34.1577 334.63C34.7732 335.066 35.1828 335.638 35.3864 336.349L35.4645 336.349C35.5687 335.799 35.8007 335.307 36.1605 334.871C36.5204 334.436 36.9631 334.09 37.4886 333.835C38.0095 333.579 38.5705 333.451 39.1719 333.451C39.9389 333.451 40.6278 333.659 41.2386 334.076C41.8447 334.488 42.3229 335.056 42.6733 335.781C43.0237 336.5 43.1989 337.324 43.1989 338.252ZM42.0057 338.252C42.0057 337.561 41.8826 336.955 41.6364 336.434C41.3854 335.908 41.0421 335.499 40.6065 335.205C40.1709 334.907 39.6714 334.758 39.108 334.758C38.5256 334.758 38.0071 334.912 37.5526 335.219C37.0933 335.527 36.7311 335.944 36.4659 336.469C36.196 336.995 36.0611 337.589 36.0611 338.252C36.0611 338.915 36.196 339.512 36.4659 340.042C36.7311 340.567 37.0933 340.984 37.5526 341.292C38.0071 341.595 38.5256 341.746 39.108 341.746C39.6714 341.746 40.1709 341.602 40.6065 341.313C41.0421 341.02 41.3854 340.61 41.6364 340.085C41.8826 339.554 42.0057 338.943 42.0057 338.252ZM34.9247 338.252C34.9247 337.684 34.804 337.175 34.5625 336.725C34.321 336.275 33.9919 335.92 33.5753 335.66C33.1539 335.395 32.6757 335.26 32.1406 335.255C31.6103 335.26 31.1416 335.392 30.7344 335.653C30.3224 335.913 30.0028 336.268 29.7756 336.718C29.5436 337.163 29.4276 337.674 29.4276 338.252C29.4276 338.83 29.5436 339.346 29.7756 339.8C30.0028 340.25 30.3224 340.605 30.7344 340.866C31.1416 341.121 31.6103 341.247 32.1406 341.242C32.6757 341.247 33.1539 341.119 33.5753 340.859C33.9919 340.594 34.321 340.236 34.5625 339.786C34.804 339.332 34.9247 338.82 34.9247 338.252ZM28.2557 326.127C28.2604 325.521 28.3835 324.934 28.625 324.365C28.8617 323.792 29.2453 323.276 29.7756 322.817C30.3011 322.358 31.0019 321.993 31.8778 321.723C32.7491 321.453 33.8215 321.319 35.0952 321.319C36.2836 321.319 37.3726 321.423 38.3622 321.631C39.3518 321.839 40.2088 322.152 40.9332 322.569C41.6529 322.98 42.2116 323.501 42.6094 324.131C43.0024 324.756 43.1989 325.488 43.1989 326.326C43.1989 327.107 43.0355 327.801 42.7088 328.407C42.3821 329.008 41.9299 329.496 41.3523 329.87C40.7699 330.244 40.0975 330.476 39.3352 330.566L39.3352 329.259C40.1117 329.131 40.7509 328.819 41.2528 328.321C41.7547 327.819 42.0057 327.154 42.0057 326.326C42.0057 325.137 41.4517 324.214 40.3437 323.556C39.2358 322.898 37.6591 322.569 35.6136 322.569L35.6136 322.661C36.0398 322.888 36.4115 323.186 36.7287 323.556C37.0459 323.92 37.2945 324.337 37.4744 324.806C37.6496 325.275 37.7372 325.769 37.7372 326.29C37.7372 327.1 37.5336 327.841 37.1264 328.513C36.7145 329.185 36.1534 329.723 35.4432 330.125C34.7282 330.528 33.9138 330.729 33 330.729C32.1383 330.729 31.3475 330.54 30.6278 330.161C29.9034 329.777 29.3258 329.242 28.8949 328.556C28.4593 327.864 28.2462 327.055 28.2557 326.127ZM29.4489 326.127C29.4489 326.757 29.6098 327.322 29.9318 327.824C30.2491 328.321 30.6776 328.717 31.2173 329.01C31.7524 329.299 32.3466 329.444 33 329.444C33.6581 329.444 34.2571 329.299 34.7969 329.01C35.3319 328.717 35.758 328.321 36.0753 327.824C36.3878 327.322 36.544 326.757 36.544 326.127C36.544 325.644 36.447 325.194 36.2528 324.777C36.054 324.361 35.7841 324.001 35.4432 323.698C35.1023 323.39 34.7164 323.158 34.2855 323.002C33.8499 322.841 33.393 322.777 32.9148 322.81C32.2519 322.867 31.66 323.044 31.1392 323.343C30.6136 323.636 30.2017 324.025 29.9034 324.507C29.6004 324.986 29.4489 325.525 29.4489 326.127ZM43.2273 314.003C43.2273 314.979 42.9834 315.828 42.4957 316.553C42.008 317.273 41.3404 317.831 40.4929 318.229C39.6454 318.627 38.6794 318.826 37.5952 318.826C36.5014 318.826 35.5284 318.624 34.6761 318.222C33.8239 317.815 33.1562 317.251 32.6733 316.532C32.1856 315.812 31.9418 314.976 31.9418 314.025C31.9418 313.295 32.0838 312.635 32.3679 312.043C32.6473 311.451 33.0426 310.963 33.554 310.58C34.0606 310.192 34.6525 309.948 35.3295 309.848L35.3295 311.127C34.714 311.259 34.1884 311.579 33.7528 312.086C33.3125 312.587 33.0923 313.227 33.0923 314.003C33.0923 314.699 33.2817 315.315 33.6605 315.85C34.0346 316.385 34.5578 316.804 35.2301 317.107C35.8977 317.405 36.6719 317.554 37.5526 317.554C38.438 317.554 39.2216 317.408 39.9034 317.114C40.5805 316.82 41.1108 316.408 41.4943 315.878C41.8778 315.343 42.0696 314.718 42.0696 314.003C42.0696 313.52 41.9796 313.08 41.7997 312.682C41.6151 312.28 41.3546 311.944 41.0185 311.674C40.6823 311.399 40.2822 311.214 39.8182 311.12L39.8182 309.841C40.4763 309.936 41.0634 310.17 41.5795 310.544C42.0909 310.914 42.4934 311.394 42.7869 311.986C43.0805 312.573 43.2273 313.246 43.2273 314.003ZM43 307.132L32.0909 307.132L32.0909 305.903L33.767 305.903L33.767 305.789C33.2036 305.572 32.7609 305.209 32.4389 304.703C32.1122 304.191 31.9489 303.578 31.9489 302.863C31.9489 302.11 32.1264 301.493 32.4815 301.01C32.8319 300.522 33.3149 300.157 33.9304 299.916L33.9304 299.824C33.3243 299.577 32.8437 299.177 32.4886 298.623C32.1288 298.065 31.9489 297.387 31.9489 296.592C31.9489 295.579 32.2685 294.779 32.9077 294.191C33.5421 293.604 34.4702 293.311 35.6918 293.311L43 293.311L43 294.575L35.6918 294.575C34.83 294.575 34.1837 294.795 33.7528 295.235C33.322 295.676 33.1065 296.256 33.1065 296.975C33.1065 297.809 33.3622 298.45 33.8736 298.9C34.3849 299.35 35.0336 299.575 35.8196 299.575L43 299.575L43 300.868L35.5781 300.868C34.8395 300.868 34.2429 301.074 33.7883 301.485C33.3338 301.897 33.1065 302.477 33.1065 303.225C33.1065 303.727 33.2296 304.18 33.4758 304.582C33.7221 304.98 34.0653 305.295 34.5057 305.527C34.9413 305.754 35.4432 305.868 36.0114 305.868L43 305.868L43 307.132Z" fill="#606060"/>
<path d="M37.8087 524.359L38.5246 523.7L45.6721 523.579C46.6078 523.56 47.3868 523.522 48.0091 523.464C48.6314 523.406 49.1553 523.297 49.5808 523.137C50.0095 522.981 50.391 522.749 50.7255 522.441C51.1331 522.066 51.4002 521.643 51.5269 521.172C51.6603 520.702 51.6601 520.223 51.5261 519.735C51.3922 519.247 51.1344 518.795 50.7528 518.381C50.3488 517.942 49.9004 517.643 49.4076 517.486C48.9181 517.331 48.4262 517.314 47.932 517.435C47.4378 517.555 46.9782 517.811 46.5532 518.202L45.6922 517.266C46.2844 516.721 46.9337 516.375 47.6402 516.226C48.3534 516.078 49.0587 516.121 49.7561 516.354C50.4566 516.591 51.0843 517.01 51.6391 517.613C52.1874 518.209 52.5459 518.857 52.7146 519.558C52.8868 520.255 52.8753 520.938 52.6801 521.607C52.4848 522.276 52.1155 522.86 51.572 523.361C51.1784 523.723 50.7328 524.004 50.2353 524.205C49.7409 524.409 49.1134 524.552 48.3527 524.635C47.592 524.717 46.6116 524.764 45.4115 524.774L40.0051 524.847L39.9372 524.91L44.8098 530.203L43.9319 531.011L37.8087 524.359ZM49.0321 536.845C48.6284 536.4 48.3196 535.886 48.1058 535.304C47.8954 534.719 47.8298 534.078 47.9089 533.381C47.9915 532.681 48.2637 531.935 48.7254 531.143C49.1871 530.351 49.8882 529.522 50.8288 528.656C51.6997 527.855 52.568 527.197 53.4337 526.683C54.2994 526.17 55.1381 525.822 55.9498 525.642C56.7615 525.461 57.5236 525.467 58.236 525.661C58.9519 525.851 59.5937 526.255 60.1613 526.871C60.6936 527.45 61.0432 528.071 61.21 528.734C61.3804 529.395 61.3797 530.058 61.2081 530.725C61.0364 531.391 60.7057 532.014 60.2159 532.594L59.3309 531.632C59.8054 531.015 60.0572 530.355 60.0863 529.653C60.1154 528.95 59.8478 528.293 59.2834 527.679C58.4753 526.802 57.4424 526.497 56.1847 526.767C54.9305 527.034 53.5545 527.853 52.0568 529.225L52.1194 529.293C52.5935 529.172 53.069 529.14 53.5458 529.196C54.0294 529.253 54.4943 529.395 54.9407 529.621C55.3905 529.844 55.7902 530.145 56.1397 530.525C56.6881 531.121 57.0384 531.805 57.1906 532.579C57.3464 533.349 57.2975 534.125 57.0441 534.905C56.7941 535.682 56.3329 536.38 55.6606 536.999C55.0231 537.586 54.3062 537.985 53.51 538.197C52.717 538.412 51.9279 538.411 51.1427 538.194C50.3607 537.981 49.6572 537.531 49.0321 536.845ZM49.91 536.037C50.3397 536.504 50.8414 536.811 51.415 536.959C51.9918 537.11 52.5765 537.109 53.1693 536.956C53.7655 536.8 54.3057 536.499 54.79 536.053C55.2742 535.608 55.6153 535.097 55.8134 534.522C56.0114 533.948 56.0572 533.368 55.9507 532.784C55.8474 532.203 55.5809 531.68 55.1512 531.213C54.8241 530.858 54.4463 530.594 54.0178 530.422C53.5928 530.247 53.1507 530.162 52.6914 530.166C52.2388 530.171 51.7978 530.261 51.3683 530.438C50.9419 530.618 50.5657 530.884 50.2395 531.236C49.7836 531.726 49.4599 532.259 49.2686 532.834C49.0839 533.41 49.042 533.976 49.143 534.533C49.2471 535.093 49.5028 535.595 49.91 536.037ZM57.0825 545.633C56.4219 544.915 56.0257 544.125 55.8939 543.262C55.7653 542.402 55.8781 541.539 56.2323 540.672C56.5865 539.805 57.1625 539.005 57.9603 538.271C58.765 537.53 59.6172 537.019 60.5168 536.738C61.4197 536.46 62.2924 536.423 63.1352 536.625C63.9814 536.824 64.7268 537.274 65.3714 537.974C65.8652 538.511 66.208 539.093 66.3998 539.721C66.5951 540.345 66.6345 540.972 66.518 541.6C66.4082 542.229 66.1379 542.809 65.7071 543.341L64.8413 542.401C65.2044 541.886 65.3746 541.295 65.352 540.627C65.3361 539.96 65.0652 539.34 64.5393 538.769C64.0679 538.257 63.5117 537.932 62.8706 537.795C62.2331 537.655 61.5643 537.701 60.8644 537.933C60.1712 538.166 59.5006 538.581 58.8526 539.177C58.2012 539.777 57.7241 540.415 57.4212 541.093C57.1219 541.768 57.0107 542.43 57.0877 543.08C57.1678 543.733 57.45 544.323 57.9342 544.849C58.2613 545.204 58.6257 545.467 59.0275 545.638C59.4359 545.809 59.8552 545.88 60.2853 545.851C60.7186 545.825 61.1381 545.69 61.5436 545.446L62.4094 546.386C61.861 546.762 61.2703 546.988 60.6373 547.062C60.0109 547.137 59.3893 547.056 58.7725 546.819C58.1589 546.586 57.5956 546.19 57.0825 545.633ZM61.9034 550.535L69.9298 543.147L70.7619 544.051L69.5287 545.186L69.6057 545.269C70.1677 545.048 70.7388 545.015 71.3188 545.169C71.9055 545.324 72.4409 545.665 72.9251 546.191C73.435 546.745 73.7228 547.32 73.7886 547.915C73.8611 548.512 73.7527 549.107 73.4634 549.701L73.5259 549.769C74.1386 549.54 74.7631 549.509 75.3996 549.676C76.0427 549.843 76.6337 550.22 77.1724 550.805C77.8586 551.55 78.1654 552.356 78.0927 553.221C78.0236 554.082 77.5396 554.927 76.6408 555.754L71.2638 560.704L70.4076 559.773L75.7846 554.824C76.4186 554.24 76.745 553.641 76.7638 553.025C76.7826 552.409 76.5483 551.836 76.0609 551.307C75.4965 550.694 74.8739 550.395 74.193 550.41C73.5121 550.426 72.8826 550.699 72.3043 551.232L67.0213 556.095L66.1459 555.144L71.6065 550.117C72.15 549.617 72.4494 549.061 72.5049 548.45C72.5603 547.84 72.3347 547.259 71.8281 546.708C71.4881 546.339 71.0913 546.09 70.6376 545.96C70.1871 545.835 69.7213 545.835 69.2402 545.963C68.7658 546.091 68.3195 546.347 67.9015 546.732L62.7596 551.465L61.9034 550.535Z" fill="#606060"/>
<path d="M99.6464 47.1464C99.4512 47.3417 99.4512 47.6583 99.6464 47.8536L102.828 51.0355C103.024 51.2308 103.34 51.2308 103.536 51.0355C103.731 50.8403 103.731 50.5237 103.536 50.3284L100.707 47.5L103.536 44.6716C103.731 44.4763 103.731 44.1597 103.536 43.9645C103.34 43.7692 103.024 43.7692 102.828 43.9645L99.6464 47.1464ZM284.354 47.8536C284.549 47.6583 284.549 47.3417 284.354 47.1464L281.172 43.9645C280.976 43.7692 280.66 43.7692 280.464 43.9645C280.269 44.1597 280.269 44.4763 280.464 44.6716L283.293 47.5L280.464 50.3284C280.269 50.5237 280.269 50.8403 280.464 51.0355C280.66 51.2308 280.976 51.2308 281.172 51.0355L284.354 47.8536ZM100 48H284V47H100V48Z" fill="#2A5064"/>
<path d="M63.3549 183.648C63.1603 183.452 62.8438 183.451 62.6478 183.645L59.4539 186.815C59.2579 187.01 59.2568 187.326 59.4513 187.522C59.6458 187.718 59.9624 187.719 60.1584 187.525L62.9974 184.707L65.8152 187.546C66.0097 187.742 66.3263 187.743 66.5223 187.549C66.7183 187.354 66.7195 187.038 66.525 186.842L63.3549 183.648ZM61.6451 452.352C61.8397 452.548 62.1562 452.549 62.3522 452.355L65.5461 449.185C65.7421 448.99 65.7432 448.674 65.5487 448.478C65.3542 448.282 65.0376 448.281 64.8416 448.475L62.0026 451.293L59.1848 448.454C58.9903 448.258 58.6737 448.257 58.4777 448.451C58.2817 448.646 58.2805 448.962 58.475 449.158L61.6451 452.352ZM62.5 183.998L61.5 451.998L62.5 452.002L63.5 184.002L62.5 183.998Z" fill="#2A5064"/>
<path d="M61.0342 503.501C60.7587 503.482 60.52 503.69 60.5012 503.966L60.1937 508.455C60.1748 508.731 60.3828 508.969 60.6583 508.988C60.9338 509.007 61.1725 508.799 61.1913 508.524L61.4647 504.533L65.4553 504.806C65.7308 504.825 65.9694 504.617 65.9883 504.342C66.0072 504.066 65.7991 503.828 65.5236 503.809L61.0342 503.501ZM94.9658 543.499C95.2413 543.518 95.48 543.31 95.4988 543.034L95.8063 538.545C95.8252 538.269 95.6172 538.031 95.3417 538.012C95.0662 537.993 94.8275 538.201 94.8087 538.476L94.5353 542.467L90.5447 542.194C90.2692 542.175 90.0306 542.383 90.0117 542.658C89.9928 542.934 90.2009 543.172 90.4764 543.191L94.9658 543.499ZM60.6231 504.329L94.6231 543.329L95.3769 542.671L61.3769 503.671L60.6231 504.329Z" fill="#2A5064"/>
</svg>
