<svg width="37" height="47" viewBox="0 0 37 47" fill="none" xmlns="http://www.w3.org/2000/svg">
<path d="M0.267883 27.9729H17.2109L7.60092 46.3801H0.267883V27.9729Z" fill="#2D2D2D"/>
<path d="M37 13.8721C37 14.6343 36.9665 15.3584 36.8661 16.0443V16.1206C36.4643 19.1313 35.2253 21.8371 33.4172 23.895C33.3502 23.9713 33.2833 24.0475 33.2163 24.1237C33.2163 24.1237 33.2163 24.1237 33.1828 24.1618C31.7765 25.61 30.1692 26.6771 28.3276 27.2868C27.4905 27.5536 26.6534 27.7823 25.7158 27.8966C25.1131 27.9728 24.5774 28.0109 24.5774 28.0109H17.2109L0.100448 18.4834L0 0H22.9701C23.1376 0 23.305 0 23.4724 0C26.0842 0.0381101 28.2941 0.533537 30.1357 1.44818C30.1692 1.44818 30.1692 1.44818 30.2027 1.48629C34.2208 3.73479 36.9665 8.42233 37 13.8721Z" fill="#606060"/>
<path d="M35.9285 46.3801H17.2109V27.9729H24.5774L35.9285 46.3801Z" fill="#444444"/>
</svg>
