<svg width="37" height="60" viewBox="0 0 37 60" fill="none" xmlns="http://www.w3.org/2000/svg">
<path d="M0.267883 28.3279H17.2109L7.60092 46.7351H0.267883V28.3279Z" fill="#2D2D2D"/>
<path d="M37 14.2271C37 14.9893 36.9665 15.7133 36.8661 16.3993V16.4756C36.4643 19.4863 35.2253 22.1921 33.4172 24.25C33.3502 24.3262 33.2833 24.4025 33.2163 24.4787C33.2163 24.4787 33.2163 24.4787 33.1828 24.5168C31.7765 25.965 30.1692 27.0321 28.3276 27.6418C27.4905 27.9086 26.6534 28.1372 25.7158 28.2516C25.1131 28.3278 24.5774 28.3659 24.5774 28.3659H17.2109L0.100448 18.8384L0 0.35498H22.9701C23.1376 0.35498 23.305 0.35498 23.4724 0.35498C26.0842 0.393091 28.2941 0.888517 30.1357 1.80316C30.1692 1.80316 30.1692 1.80316 30.2027 1.84127C34.2208 4.08977 36.9665 8.77731 37 14.2271Z" fill="#606060"/>
<path d="M4.21896 53.3212C4.58729 53.5118 4.88865 53.7785 5.08955 54.1596C5.29046 54.5407 5.39091 54.9599 5.39091 55.4554C5.39091 55.9508 5.29046 56.37 5.08955 56.7511C4.88865 57.1322 4.58729 57.399 4.21896 57.5895C3.85064 57.7801 3.38186 57.8944 2.8796 57.8944H1.70765V59.7237H0.368286V53.0544H2.8796C3.38186 53.0544 3.85064 53.1307 4.21896 53.3212ZM3.7167 56.2938C3.91761 56.1033 4.01806 55.7984 4.01806 55.4554C4.01806 55.0743 3.91761 54.8075 3.7167 54.5788C3.5158 54.3883 3.18095 54.274 2.77914 54.274H1.67417V56.5987H2.77914C3.21443 56.5987 3.5158 56.4844 3.7167 56.2938Z" fill="#2D2D2D"/>
<path d="M10.0787 59.6856L8.94028 57.8182H8.87331H7.70137V59.6856H6.362V53.0544H8.87331C9.37557 53.0544 9.84435 53.1688 10.2127 53.3593C10.581 53.5499 10.8824 53.8166 11.0833 54.1977C11.2842 54.5788 11.3846 54.9981 11.3846 55.4935C11.3846 55.9889 11.2842 56.4081 11.0833 56.7892C10.8824 57.1322 10.581 57.4371 10.1792 57.6277L11.4851 59.7618L10.0787 59.6856ZM9.7439 54.5788C9.543 54.3883 9.20815 54.274 8.80634 54.274H7.70137V56.5987H8.80634C9.20815 56.5987 9.50951 56.4844 9.7439 56.2938C9.94481 56.1033 10.0453 55.7984 10.0453 55.4554C10.0453 55.0743 9.94481 54.8075 9.7439 54.5788Z" fill="#2D2D2D"/>
<path d="M16.3403 58.2755H13.6281L13.1258 59.6856H11.7195L14.3312 53.0544H15.6706L18.2824 59.6856H16.876L16.3403 58.2755ZM15.905 57.0941L14.9675 54.5407L14.0299 57.0941H15.905Z" fill="#2D2D2D"/>
<path d="M23.9411 56.8273C24.142 57.0941 24.209 57.4371 24.209 57.8563C24.209 58.428 24.0081 58.8853 23.6063 59.1902C23.2044 59.4951 22.6352 59.6475 21.8651 59.6475H18.8515V53.0544H21.6977C22.4008 53.0544 22.9701 53.2069 23.3384 53.5118C23.7067 53.8167 23.9076 54.2359 23.9076 54.7694C23.9076 55.0743 23.8406 55.3792 23.7067 55.6459C23.5728 55.9127 23.3719 56.1033 23.1375 56.2557C23.5058 56.37 23.7737 56.5606 23.9411 56.8273ZM20.2244 54.1977V55.7603H21.5637C21.8986 55.7603 22.1664 55.684 22.3339 55.5697C22.5013 55.4554 22.6017 55.2267 22.6017 54.9981C22.6017 54.7313 22.5013 54.5407 22.3339 54.4264C22.1664 54.3121 21.8986 54.2359 21.5637 54.2359L20.2244 54.1977ZM22.6017 58.3136C22.7692 58.1993 22.8696 57.9707 22.8696 57.7039C22.8696 57.1703 22.5013 56.8655 21.7981 56.8655H20.2244V58.5042H21.7981C22.1664 58.5423 22.4343 58.4661 22.6017 58.3136Z" fill="#2D2D2D"/>
<path d="M26.4524 59.3495C25.9502 59.0446 25.5819 58.6254 25.314 58.13C25.0461 57.5964 24.9122 57.0248 24.9122 56.3769C24.9122 55.7291 25.0461 55.1574 25.314 54.6239C25.5819 54.0903 25.9837 53.7092 26.4524 53.4043C26.9547 53.0995 27.4905 52.947 28.0932 52.947C28.6959 52.947 29.2316 53.0995 29.7339 53.4043C30.2362 53.7092 30.6045 54.1284 30.8724 54.6239C31.1402 55.1193 31.2742 55.7291 31.2742 56.3769C31.2742 57.0248 31.1402 57.5964 30.8724 58.13C30.6045 58.6635 30.2027 59.0446 29.7339 59.3495C29.2651 59.6544 28.6959 59.8068 28.0932 59.8068C27.4905 59.8068 26.9212 59.6544 26.4524 59.3495ZM29.0307 58.2443C29.2986 58.0538 29.533 57.8251 29.7004 57.4821C29.8678 57.1772 29.9348 56.7961 29.9348 56.3769C29.9348 55.9577 29.8678 55.6147 29.7004 55.2717C29.533 54.9668 29.3321 54.7001 29.0307 54.5095C28.7629 54.319 28.428 54.2428 28.0932 54.2428C27.7583 54.2428 27.4235 54.319 27.1556 54.5095C26.8877 54.7001 26.6534 54.9287 26.4859 55.2717C26.3185 55.5766 26.2515 55.9577 26.2515 56.3769C26.2515 56.7961 26.3185 57.1391 26.4859 57.4821C26.6534 57.787 26.8543 58.0538 27.1556 58.2443C27.4235 58.4349 27.7583 58.5111 28.0932 58.5111C28.428 58.5111 28.7294 58.3968 29.0307 58.2443Z" fill="#2D2D2D"/>
<path d="M33.4172 54.3121H31.5421V53.0544H36.6316V54.3121H34.7565V59.6856H33.4172V54.3121V54.3121Z" fill="#2D2D2D"/>
<path d="M35.9285 46.7351H17.2109V28.3279H24.5774L35.9285 46.7351Z" fill="#444444"/>
</svg>
